# xmcd CD database file
#
# Track frame offsets:
#	150
#	17042
#	33612
#	57455
#	76057
#	93517
#	111585
#	132110
#	152772
#
# Disc length: 2347 seconds
#
# Revision: 0
# Processed by: cddbd v1.4PL0 Copyright (c) Steve Scherf et al.
# Submitted via: CDex 1.50beta9
#
DISCID=71092909
DTITLE=D.U.B - D.U.B
DYEAR=1986
DGENRE=Jazz
TTITLE0=MYSTERIOUS TEA
TTITLE1=17TH KISS
TTITLE2=ANATORIA
TTITLE3=WE HAVE MANY POSSIBILLITY
TTITLE4=LET'S DRINK
TTITLE5=1970
TTITLE6=SURGE
TTITLE7=ON A LITTLE BOAT TO AIVALIK
TTITLE8=TEACHER'S RUNNIN'
EXTD=YEAR: 1986
EXTT0=
EXTT1=
EXTT2=
EXTT3=
EXTT4=
EXTT5=
EXTT6=
EXTT7=
EXTT8=
PLAYORDER=
